<svg version="1.1" xmlns="http://www.w3.org/2000/svg" viewBox="0 0 721.5 518.9124794006348" width="721.5" height="518.9124794006348" filter="invert(93%) hue-rotate(180deg)" class="excalidraw-svg">
  <!-- svg-source:excalidraw -->
  
  <defs>
    <style class="style-fonts">
      
    </style>
    
  </defs>
  <rect x="0" y="0" width="721.5" height="518.9124794006348" fill="#ffffff"></rect><g stroke-linecap="round" transform="translate(362.5 13) rotate(0 154 37.5)"><path d="M18.75 0 C96.53 0.36, 174.99 -0.36, 289.25 0 M18.75 0 C90.01 0.88, 161.89 1.88, 289.25 0 M289.25 0 C300.27 1.06, 306.54 7.85, 308 18.75 M289.25 0 C303.36 0.16, 309.14 6.46, 308 18.75 M308 18.75 C306.21 30.54, 307.64 44.27, 308 56.25 M308 18.75 C308.1 29.36, 308.22 38.75, 308 56.25 M308 56.25 C308.68 69.47, 302.25 73.25, 289.25 75 M308 56.25 C307.4 67.37, 302.17 75.28, 289.25 75 M289.25 75 C197.1 74.07, 106.84 72.76, 18.75 75 M289.25 75 C234.1 73.45, 177.81 73.97, 18.75 75 M18.75 75 C6.46 73.38, 1.05 69.17, 0 56.25 M18.75 75 C5.2 74.08, -0.48 69.05, 0 56.25 M0 56.25 C0.34 43.82, 0.31 26.11, 0 18.75 M0 56.25 C1.07 48.23, 0.13 40.56, 0 18.75 M0 18.75 C-1.55 6.42, 5.29 0.21, 18.75 0 M0 18.75 C1.27 6.07, 6.39 -0.42, 18.75 0" stroke="#1e1e1e" stroke-width="2" fill="none"></path></g><g stroke-linecap="round" transform="translate(220.5 10) rotate(0 44.5 246.45623970031738)"><path d="M22.25 0 C35.08 -0.56, 50.67 1.18, 66.75 0 M22.25 0 C37.3 0.07, 52.58 0.37, 66.75 0 M66.75 0 C80.67 -1.65, 87.75 9.12, 89 22.25 M66.75 0 C80.34 1.79, 87.89 8.15, 89 22.25 M89 22.25 C89.4 165.28, 88.76 309.57, 89 470.66 M89 22.25 C89.34 120.36, 88.93 218.96, 89 470.66 M89 470.66 C89.45 484.34, 80.78 491.23, 66.75 492.91 M89 470.66 C89.89 484.54, 82.73 492.92, 66.75 492.91 M66.75 492.91 C51.59 492.59, 33.72 493.06, 22.25 492.91 M66.75 492.91 C54.52 493.44, 41.18 492.51, 22.25 492.91 M22.25 492.91 C8.35 491.77, -1.28 485.46, 0 470.66 M22.25 492.91 C7.82 493.69, -0.76 484.6, 0 470.66 M0 470.66 C-1.32 315.11, -1.24 159.1, 0 22.25 M0 470.66 C0.21 356.62, -0.16 242.24, 0 22.25 M0 22.25 C1.47 6.81, 5.62 -0.33, 22.25 0 M0 22.25 C-1.18 9.41, 5.43 1.27, 22.25 0" stroke="#1e1e1e" stroke-width="2" fill="none"></path></g><g stroke-linecap="round" transform="translate(220.5 100.91247940063477) rotate(0 229 33.5)"><path d="M16.75 0 C130.2 -0.25, 246.44 0.85, 441.25 0 M16.75 0 C119.84 1.07, 223.03 1.58, 441.25 0 M441.25 0 C451.1 1.19, 456.54 5.34, 458 16.75 M441.25 0 C450.27 -0.85, 459.42 4.16, 458 16.75 M458 16.75 C456.45 28.04, 456.96 41.08, 458 50.25 M458 16.75 C458.45 29.95, 457.48 41.24, 458 50.25 M458 50.25 C456.66 60.84, 452.19 67.73, 441.25 67 M458 50.25 C458.47 59.49, 450.76 65.02, 441.25 67 M441.25 67 C332 65.82, 222.54 66.33, 16.75 67 M441.25 67 C347.12 69.49, 252.46 68.71, 16.75 67 M16.75 67 C6.68 66.39, -1.65 60.63, 0 50.25 M16.75 67 C5.29 65.02, -0.97 60.23, 0 50.25 M0 50.25 C0.84 39.16, 2.07 26.88, 0 16.75 M0 50.25 C-0.1 42.52, 0.84 34.6, 0 16.75 M0 16.75 C1.4 6.04, 7.12 0.2, 16.75 0 M0 16.75 C-0.22 3.47, 7.51 0.39, 16.75 0" stroke="#1e1e1e" stroke-width="2" fill="none"></path></g><g transform="translate(297.5 143.91247940063477) rotate(0 60 -6.5)" stroke="none"><path fill="transparent" d="M -0.82,-3.30 Q -0.82,-3.30 1.42,-4.06 3.68,-4.82 6.45,-5.49 9.23,-6.17 13.23,-6.36 17.24,-6.56 23.35,-7.06 29.46,-7.55 38.50,-8.00 47.55,-8.45 56.78,-9.18 66.02,-9.90 74.06,-10.18 82.09,-10.47 88.09,-10.57 94.09,-10.67 98.66,-10.69 103.23,-10.72 106.32,-10.93 109.41,-11.15 112.97,-11.56 116.52,-11.98 117.52,-12.11 118.51,-12.24 119.02,-12.18 119.53,-12.12 120.01,-11.94 120.49,-11.76 120.91,-11.47 121.33,-11.18 121.67,-10.80 122.02,-10.42 122.25,-9.96 122.49,-9.51 122.62,-9.01 122.74,-8.52 122.74,-8.00 122.74,-7.49 122.62,-6.99 122.50,-6.50 122.27,-6.04 122.03,-5.59 121.69,-5.20 121.35,-4.82 120.93,-4.53 120.51,-4.23 120.03,-4.05 119.55,-3.87 119.04,-3.81 118.54,-3.74 115.33,-4.35 112.11,-4.97 108.28,-5.26 104.45,-5.55 100.86,-5.91 97.27,-6.27 93.90,-6.68 90.52,-7.09 87.35,-6.96 84.18,-6.82 81.83,-6.86 79.48,-6.89 75.60,-7.21 71.73,-7.53 67.06,-7.60 62.39,-7.68 57.96,-7.83 53.54,-7.98 49.93,-7.97 46.33,-7.96 43.65,-7.84 40.97,-7.72 37.95,-7.44 34.93,-7.17 31.65,-6.97 28.36,-6.76 27.52,-6.90 26.69,-7.04 25.94,-7.43 25.19,-7.83 24.61,-8.44 24.03,-9.06 23.67,-9.83 23.32,-10.59 23.22,-11.44 23.13,-12.28 23.31,-13.10 23.50,-13.93 23.93,-14.66 24.37,-15.38 25.01,-15.93 25.66,-16.48 26.45,-16.79 27.23,-17.11 28.08,-17.15 28.92,-17.20 29.74,-16.97 30.56,-16.75 31.26,-16.27 31.96,-15.79 32.47,-15.12 32.98,-14.45 33.25,-13.64 33.52,-12.84 33.52,-12.00 33.52,-11.15 33.25,-10.35 32.98,-9.54 32.47,-8.87 31.96,-8.20 31.26,-7.72 30.56,-7.25 29.74,-7.02 28.92,-6.79 28.08,-6.84 27.23,-6.88 26.45,-7.20 25.66,-7.51 25.01,-8.06 24.37,-8.61 23.93,-9.33 23.50,-10.06 23.31,-10.88 23.13,-11.71 23.22,-12.55 23.32,-13.40 23.67,-14.16 24.03,-14.93 24.61,-15.55 25.19,-16.16 25.94,-16.56 26.69,-16.95 27.52,-17.09 28.36,-17.23 28.36,-17.23 28.36,-17.23 31.63,-17.03 34.90,-16.83 37.90,-16.58 40.90,-16.34 43.56,-16.26 46.21,-16.18 49.76,-16.27 53.30,-16.37 57.56,-16.77 61.82,-17.16 66.78,-17.81 71.73,-18.46 75.61,-18.78 79.49,-19.09 83.37,-19.08 87.26,-19.08 89.69,-18.80 92.12,-18.53 94.32,-17.88 96.51,-17.22 99.31,-16.56 102.10,-15.91 106.11,-15.22 110.13,-14.53 112.28,-14.17 114.44,-13.81 116.48,-13.03 118.51,-12.24 119.02,-12.18 119.53,-12.12 120.01,-11.94 120.49,-11.76 120.91,-11.47 121.33,-11.18 121.67,-10.80 122.02,-10.42 122.25,-9.96 122.49,-9.51 122.62,-9.01 122.74,-8.52 122.74,-8.00 122.74,-7.49 122.62,-6.99 122.50,-6.50 122.27,-6.04 122.03,-5.59 121.69,-5.20 121.35,-4.82 120.93,-4.53 120.51,-4.23 120.03,-4.05 119.55,-3.87 119.05,-3.81 118.54,-3.74 117.54,-3.87 116.55,-4.00 113.01,-4.38 109.46,-4.77 106.39,-4.92 103.31,-5.08 98.77,-4.99 94.24,-4.89 88.30,-4.69 82.35,-4.49 74.46,-4.08 66.57,-3.67 57.27,-2.76 47.97,-1.84 39.10,-1.15 30.23,-0.46 23.97,0.38 17.71,1.23 14.24,1.49 10.77,1.74 8.14,2.13 5.51,2.52 3.17,2.91 0.82,3.30 0.41,3.35 0.01,3.40 -0.39,3.36 -0.80,3.31 -1.18,3.16 -1.57,3.02 -1.91,2.79 -2.25,2.55 -2.52,2.25 -2.79,1.94 -2.99,1.58 -3.18,1.21 -3.28,0.82 -3.38,0.42 -3.38,0.01 -3.38,-0.39 -3.28,-0.79 -3.19,-1.19 -3.00,-1.56 -2.81,-1.92 -2.54,-2.23 -2.26,-2.54 -1.93,-2.77 -1.59,-3.01 -1.21,-3.16 -0.82,-3.30 -0.82,-3.30 L -0.82,-3.30 Z"></path></g><g transform="translate(306.5 134.91247940063477) rotate(0 4 -10.5)" stroke="none"><path fill="#ffffff" d="M 0.90,4.53 Q 0.90,4.53 -3.45,5.14 -7.82,5.74 -11.41,6.36 -15.01,6.98 -19.22,7.41 -23.43,7.83 -25.79,8.24 -28.15,8.65 -30.77,9.08 -33.38,9.50 -35.79,9.81 -38.20,10.12 -38.82,10.05 -39.43,9.98 -40.01,9.76 -40.59,9.55 -41.10,9.20 -41.61,8.85 -42.02,8.39 -42.44,7.93 -42.73,7.39 -43.02,6.84 -43.17,6.24 -43.32,5.64 -43.32,5.02 -43.33,4.41 -43.18,3.81 -43.04,3.20 -42.75,2.66 -42.47,2.11 -42.06,1.64 -41.66,1.18 -41.15,0.82 -40.64,0.47 -40.07,0.25 -39.49,0.02 -38.88,-0.05 -38.27,-0.12 -40.61,1.47 -42.96,3.06 -40.96,0.63 -38.96,-1.80 -35.85,-3.03 -32.75,-4.25 -29.77,-4.93 -26.78,-5.60 -23.55,-5.80 -20.32,-6.01 -17.27,-6.10 -14.23,-6.19 -11.58,-6.30 -8.93,-6.41 -6.14,-6.52 -3.35,-6.63 -0.12,-6.68 3.10,-6.74 6.67,-6.71 10.23,-6.68 13.45,-6.68 16.68,-6.67 19.43,-6.69 22.18,-6.71 24.70,-6.79 27.22,-6.87 29.74,-6.95 32.26,-7.02 34.76,-7.08 37.26,-7.15 39.74,-7.19 42.22,-7.23 44.24,-7.26 46.25,-7.30 47.13,-7.19 48.00,-7.08 48.82,-6.77 49.65,-6.46 50.37,-5.96 51.10,-5.46 51.68,-4.80 52.26,-4.14 52.67,-3.36 53.08,-2.58 53.29,-1.73 53.50,-0.87 53.50,0.00 53.50,0.88 53.29,1.73 53.08,2.58 52.67,3.36 52.26,4.14 51.68,4.80 51.10,5.46 50.37,5.96 49.65,6.46 48.82,6.77 48.00,7.08 47.13,7.19 46.25,7.30 44.13,6.69 42.00,6.09 39.04,4.89 36.08,3.68 32.54,3.00 29.00,2.33 26.40,1.71 23.79,1.10 21.44,0.58 19.09,0.05 17.02,-0.56 14.95,-1.18 12.72,-1.51 10.50,-1.84 6.86,-2.70 3.23,-3.57 0.64,-3.72 -1.94,-3.88 -4.57,-4.34 -7.20,-4.80 -9.93,-5.41 -12.67,-6.01 -14.03,-5.90 -15.40,-5.79 -16.25,-5.91 -17.11,-6.03 -17.92,-6.36 -18.72,-6.68 -19.43,-7.19 -20.13,-7.70 -20.69,-8.36 -21.26,-9.02 -21.64,-9.80 -22.03,-10.57 -22.22,-11.42 -22.41,-12.26 -22.40,-13.13 -22.38,-14.00 -22.15,-14.84 -21.93,-15.68 -21.51,-16.44 -21.09,-17.20 -20.50,-17.83 -19.92,-18.47 -19.19,-18.95 -18.47,-19.43 -17.65,-19.72 -16.83,-20.01 -15.97,-20.10 -15.11,-20.19 -18.54,-17.87 -21.97,-15.56 -20.64,-17.47 -19.30,-19.37 -17.03,-20.57 -14.76,-21.76 -12.54,-21.98 -10.32,-22.20 -7.38,-22.24 -4.45,-22.27 -1.37,-22.67 1.70,-23.07 4.32,-23.21 6.93,-23.35 9.19,-23.82 11.45,-24.30 14.18,-24.86 16.91,-25.41 19.08,-25.45 21.24,-25.49 23.25,-25.51 25.26,-25.53 26.16,-25.42 27.06,-25.31 27.91,-24.98 28.75,-24.66 29.50,-24.15 30.25,-23.63 30.85,-22.95 31.45,-22.27 31.87,-21.47 32.30,-20.67 32.51,-19.78 32.73,-18.90 32.73,-18.00 32.73,-17.09 32.51,-16.21 32.30,-15.33 31.88,-14.52 31.45,-13.72 30.85,-13.04 30.25,-12.36 29.50,-11.84 28.76,-11.33 27.91,-11.01 27.06,-10.68 26.16,-10.57 25.26,-10.46 22.50,-12.49 19.74,-14.52 16.93,-13.02 14.12,-11.52 11.23,-11.53 8.34,-11.54 6.05,-11.53 3.75,-11.51 1.24,-11.49 -1.26,-11.47 -4.49,-12.08 -7.72,-12.68 -6.70,-12.35 -5.68,-12.01 -6.59,-12.12 -7.49,-12.23 -8.34,-12.55 -9.20,-12.87 -9.95,-13.39 -10.70,-13.91 -11.30,-14.59 -11.90,-15.27 -12.33,-16.08 -12.75,-16.89 -12.97,-17.77 -13.19,-18.66 -13.19,-19.57 -13.19,-20.48 -12.97,-21.37 -12.75,-22.25 -12.33,-23.06 -11.90,-23.87 -11.30,-24.55 -10.70,-25.23 -9.94,-25.75 -9.19,-26.27 -8.34,-26.59 -7.49,-26.91 -6.59,-27.02 -5.68,-27.13 -3.18,-28.64 -0.67,-30.14 2.38,-30.81 5.44,-31.47 8.45,-31.99 11.46,-32.50 13.72,-32.85 15.97,-33.20 16.88,-33.38 17.78,-33.55 18.70,-33.51 19.63,-33.46 20.51,-33.20 21.39,-32.93 22.19,-32.46 22.98,-32.00 23.64,-31.35 24.30,-30.71 24.79,-29.92 25.28,-29.14 25.56,-28.26 25.85,-27.38 25.91,-26.46 25.98,-25.54 25.82,-24.63 25.67,-23.72 25.30,-22.88 24.93,-22.03 24.37,-21.30 23.81,-20.57 23.09,-19.99 22.37,-19.41 21.53,-19.03 20.69,-18.64 18.18,-18.48 15.66,-18.33 13.45,-18.39 11.24,-18.45 9.16,-17.90 7.07,-17.35 4.17,-14.68 1.27,-12.01 0.06,-11.71 -1.14,-11.41 -2.38,-11.51 -3.63,-11.61 -4.77,-12.10 -5.92,-12.59 -6.85,-13.42 -7.78,-14.26 -8.39,-15.34 -9.01,-16.42 -9.24,-17.65 -9.48,-18.87 -9.31,-20.11 -9.14,-21.34 -8.59,-22.46 -8.04,-23.58 -7.16,-24.46 -6.28,-25.34 -5.16,-25.90 -4.04,-26.45 -2.81,-26.62 -1.57,-26.79 -0.35,-26.56 0.87,-26.33 1.95,-25.71 3.04,-25.10 3.87,-24.17 4.70,-23.25 5.20,-22.10 5.69,-20.96 5.79,-19.71 5.90,-18.47 5.60,-17.26 5.30,-16.05 4.63,-15.00 3.96,-13.95 2.98,-13.17 2.01,-12.38 0.84,-11.95 -0.32,-11.52 -1.56,-11.49 -2.81,-11.45 -4.00,-11.82 -5.19,-12.18 -6.21,-12.91 -7.22,-13.64 -7.95,-14.65 -8.68,-15.66 -9.04,-16.85 -9.41,-18.04 -9.38,-19.29 -9.35,-20.54 -8.92,-21.71 -8.49,-22.88 -7.71,-23.85 -6.93,-24.82 -5.88,-25.49 -4.83,-26.17 -4.83,-26.17 -4.83,-26.17 -4.97,-26.88 -5.11,-27.60 -2.57,-29.36 -0.02,-31.11 2.98,-31.61 5.99,-32.11 8.86,-32.89 11.73,-33.67 13.85,-33.43 15.97,-33.20 16.88,-33.38 17.78,-33.55 18.70,-33.51 19.63,-33.46 20.51,-33.20 21.39,-32.93 22.19,-32.47 22.98,-32.00 23.64,-31.35 24.30,-30.71 24.79,-29.92 25.28,-29.14 25.56,-28.26 25.84,-27.38 25.91,-26.46 25.98,-25.54 25.82,-24.63 25.67,-23.73 25.30,-22.88 24.93,-22.03 24.37,-21.30 23.81,-20.57 23.09,-19.99 22.37,-19.41 21.53,-19.03 20.69,-18.64 19.72,-18.62 18.75,-18.61 16.37,-18.27 13.99,-17.94 11.00,-17.46 8.01,-16.97 5.46,-16.26 2.91,-15.55 0.81,-14.48 -1.28,-13.40 -3.48,-12.70 -5.68,-12.01 -6.59,-12.12 -7.49,-12.23 -8.34,-12.55 -9.19,-12.87 -9.94,-13.39 -10.70,-13.91 -11.30,-14.59 -11.90,-15.27 -12.33,-16.08 -12.75,-16.89 -12.97,-17.77 -13.19,-18.66 -13.19,-19.57 -13.19,-20.48 -12.97,-21.37 -12.75,-22.25 -12.33,-23.06 -11.90,-23.87 -11.30,-24.55 -10.70,-25.23 -9.95,-25.75 -9.20,-26.27 -8.34,-26.59 -7.49,-26.91 -6.59,-27.02 -5.68,-27.13 -3.97,-26.83 -2.26,-26.53 0.24,-26.51 2.74,-26.49 4.87,-26.47 6.99,-26.45 9.37,-26.45 11.75,-26.45 14.39,-26.49 17.02,-26.53 19.58,-26.51 22.15,-26.50 24.61,-26.19 27.07,-25.88 28.77,-24.25 30.47,-22.62 27.86,-24.07 25.25,-25.53 26.16,-25.42 27.06,-25.31 27.91,-24.99 28.75,-24.66 29.50,-24.15 30.25,-23.63 30.85,-22.95 31.45,-22.27 31.87,-21.47 32.30,-20.67 32.51,-19.79 32.73,-18.90 32.73,-18.00 32.73,-17.09 32.51,-16.21 32.30,-15.33 31.88,-14.52 31.45,-13.72 30.85,-13.04 30.25,-12.36 29.50,-11.84 28.76,-11.33 27.91,-11.01 27.06,-10.68 26.16,-10.57 25.26,-10.46 24.26,-10.47 23.26,-10.48 20.83,-10.50 18.40,-10.51 16.12,-10.08 13.85,-9.66 11.24,-9.19 8.64,-8.72 6.50,-8.86 4.36,-9.00 1.53,-8.34 -1.28,-7.69 -3.81,-7.70 -6.34,-7.71 -8.84,-7.71 -11.33,-7.71 -9.79,-9.64 -8.24,-11.57 -11.82,-8.68 -15.39,-5.79 -16.25,-5.91 -17.11,-6.03 -17.92,-6.36 -18.72,-6.68 -19.43,-7.19 -20.13,-7.70 -20.69,-8.36 -21.26,-9.02 -21.64,-9.79 -22.03,-10.57 -22.22,-11.42 -22.41,-12.26 -22.40,-13.13 -22.38,-14.00 -22.15,-14.84 -21.93,-15.68 -21.51,-16.44 -21.09,-17.20 -20.50,-17.83 -19.92,-18.47 -19.19,-18.95 -18.47,-19.43 -17.65,-19.72 -16.83,-20.01 -15.97,-20.10 -15.11,-20.19 -14.00,-20.15 -12.90,-20.11 -10.41,-19.52 -7.92,-18.93 -5.18,-18.64 -2.44,-18.36 -0.15,-18.09 2.14,-17.83 4.44,-17.62 6.73,-17.41 9.31,-16.69 11.89,-15.98 15.22,-15.30 18.56,-14.61 21.25,-13.69 23.94,-12.77 26.59,-12.36 29.23,-11.95 32.03,-11.25 34.83,-10.55 37.39,-10.25 39.95,-9.95 43.10,-8.63 46.25,-7.30 47.13,-7.19 48.00,-7.08 48.82,-6.77 49.65,-6.46 50.37,-5.96 51.10,-5.46 51.68,-4.80 52.26,-4.14 52.67,-3.36 53.08,-2.58 53.29,-1.73 53.50,-0.88 53.50,-0.00 53.50,0.87 53.29,1.73 53.08,2.58 52.67,3.36 52.26,4.14 51.68,4.80 51.10,5.46 50.37,5.96 49.65,6.46 48.82,6.77 48.00,7.08 47.13,7.19 46.25,7.30 44.24,7.26 42.22,7.23 39.74,7.19 37.26,7.15 34.76,7.08 32.26,7.02 29.74,6.95 27.22,6.87 24.70,6.79 22.18,6.71 19.43,6.69 16.68,6.67 13.45,6.68 10.23,6.68 6.67,6.71 3.10,6.74 0.84,6.71 -1.42,6.67 -4.09,6.59 -6.77,6.51 -9.27,6.39 -11.77,6.27 -14.47,6.21 -17.16,6.14 -20.03,6.10 -22.91,6.06 -25.23,6.09 -27.55,6.12 -30.39,5.95 -33.23,5.77 -35.72,7.95 -38.20,10.12 -38.82,10.05 -39.43,9.98 -40.01,9.76 -40.59,9.55 -41.10,9.20 -41.61,8.85 -42.02,8.39 -42.43,7.93 -42.73,7.39 -43.02,6.84 -43.17,6.24 -43.32,5.64 -43.32,5.02 -43.33,4.41 -43.18,3.81 -43.04,3.21 -42.76,2.66 -42.47,2.11 -42.06,1.64 -41.66,1.18 -41.15,0.82 -40.64,0.47 -40.07,0.25 -39.49,0.02 -38.88,-0.05 -38.27,-0.12 -36.03,0.11 -33.80,0.36 -31.39,0.49 -28.99,0.63 -26.71,0.56 -24.44,0.49 -20.45,-0.21 -16.46,-0.91 -12.94,-1.60 -9.42,-2.29 -5.16,-3.41 -0.90,-4.53 -0.35,-4.58 0.20,-4.62 0.75,-4.53 1.30,-4.44 1.81,-4.21 2.33,-3.99 2.77,-3.66 3.21,-3.32 3.57,-2.89 3.92,-2.45 4.15,-1.95 4.39,-1.44 4.50,-0.90 4.61,-0.35 4.58,0.20 4.56,0.76 4.40,1.29 4.25,1.83 3.96,2.31 3.68,2.79 3.30,3.19 2.91,3.59 2.43,3.89 1.96,4.18 1.43,4.36 0.90,4.53 0.90,4.53 L 0.90,4.53 Z"></path></g><g transform="translate(247.5 93.91247940063477) rotate(0 32 8.5)" stroke="none"><path fill="#ffffff" d="M 4.94,1.85 Q 4.94,1.85 4.10,4.16 3.26,6.47 2.24,8.61 1.22,10.75 0.20,13.71 -0.82,16.66 -1.84,19.80 -2.87,22.94 -3.64,24.95 -4.40,26.96 -4.70,27.67 -4.99,28.37 -5.45,28.98 -5.90,29.59 -6.49,30.07 -7.08,30.56 -7.76,30.88 -8.45,31.21 -9.19,31.37 -9.94,31.52 -10.70,31.50 -11.46,31.47 -12.19,31.26 -12.92,31.05 -13.58,30.68 -14.24,30.30 -14.80,29.77 -15.35,29.25 -15.76,28.61 -16.17,27.97 -16.41,27.25 -16.65,26.52 -16.72,25.77 -16.78,25.01 -16.66,24.26 -16.54,23.51 -16.15,26.13 -15.75,28.76 -16.83,26.70 -17.90,24.65 -18.70,22.33 -19.50,20.00 -19.97,16.69 -20.44,13.38 -20.93,10.32 -21.43,7.25 -21.58,4.62 -21.72,1.99 -21.77,-0.21 -21.82,-2.42 -21.87,-5.18 -21.92,-7.93 -21.98,-10.09 -22.04,-12.25 -22.05,-12.75 -22.07,-13.25 -21.96,-14.10 -21.86,-14.94 -21.56,-15.74 -21.26,-16.54 -20.77,-17.24 -20.29,-17.94 -19.65,-18.51 -19.01,-19.07 -18.26,-19.47 -17.50,-19.86 -16.68,-20.07 -15.85,-20.27 -14.99,-20.27 -14.14,-20.27 -13.31,-20.07 -12.49,-19.86 -11.73,-19.47 -10.98,-19.07 -10.34,-18.51 -9.70,-17.94 -9.22,-17.24 -8.73,-16.54 -8.43,-15.74 -8.13,-14.94 -8.03,-14.10 -7.92,-13.25 -6.56,-11.39 -5.19,-9.53 -4.63,-7.46 -4.07,-5.40 -3.47,-2.53 -2.86,0.32 -2.78,2.71 -2.71,5.10 -2.67,7.67 -2.62,10.25 -2.59,12.75 -2.56,15.26 -2.67,16.15 -2.78,17.03 -3.10,17.87 -3.41,18.71 -3.92,19.45 -4.43,20.18 -5.10,20.78 -5.77,21.37 -6.57,21.79 -7.36,22.20 -8.23,22.42 -9.10,22.63 -10.00,22.63 -10.89,22.63 -11.76,22.42 -12.63,22.20 -13.42,21.79 -14.22,21.37 -14.89,20.78 -15.56,20.18 -16.07,19.45 -16.58,18.71 -16.89,17.87 -17.21,17.03 -17.32,16.14 -17.43,15.26 -16.88,12.80 -16.34,10.35 -15.44,6.93 -14.54,3.52 -13.79,-0.42 -13.03,-4.38 -12.44,-6.66 -11.85,-8.94 -9.07,-11.11 -6.30,-13.28 -4.21,-13.81 -2.11,-14.33 0.65,-12.61 3.42,-10.88 4.82,-8.21 6.21,-5.53 6.75,-2.72 7.29,0.08 7.80,3.34 8.31,6.60 8.59,10.90 8.87,15.21 9.17,18.97 9.47,22.73 9.95,25.35 10.43,27.97 10.93,30.55 11.44,33.14 11.92,35.58 12.40,38.02 12.46,38.15 12.52,38.28 12.51,38.96 12.50,39.64 12.32,40.29 12.15,40.94 11.83,41.54 11.50,42.13 11.05,42.63 10.59,43.13 10.03,43.51 9.46,43.88 8.83,44.11 8.19,44.34 7.52,44.41 6.84,44.48 6.17,44.39 5.50,44.29 4.88,44.04 4.25,43.79 3.70,43.40 3.15,43.01 2.71,42.49 2.27,41.98 1.96,41.38 1.66,40.77 1.51,40.11 1.35,39.45 1.24,37.07 1.12,34.68 1.04,31.61 0.96,28.54 0.91,25.12 0.85,21.69 1.25,18.60 1.65,15.51 2.17,12.50 2.69,9.50 3.11,5.95 3.53,2.41 4.14,-1.60 4.76,-5.63 5.28,-9.10 5.80,-12.57 6.30,-15.78 6.80,-18.99 6.90,-21.34 7.01,-23.69 7.31,-25.89 7.62,-28.09 7.61,-30.73 7.61,-33.37 7.47,-35.32 7.34,-37.27 7.43,-37.95 7.53,-38.62 7.78,-39.25 8.04,-39.89 8.43,-40.44 8.83,-40.99 9.35,-41.43 9.87,-41.88 10.48,-42.18 11.08,-42.49 11.75,-42.64 12.41,-42.79 13.09,-42.77 13.77,-42.76 14.43,-42.58 15.09,-42.41 15.69,-42.08 16.28,-41.75 16.79,-41.29 17.29,-40.83 17.66,-40.26 18.04,-39.70 18.27,-39.05 18.50,-38.41 18.57,-37.74 18.64,-37.06 17.13,-39.47 15.62,-41.89 17.41,-40.39 19.19,-38.89 19.85,-36.72 20.51,-34.55 21.07,-30.24 21.63,-25.94 21.81,-22.72 21.98,-19.50 22.06,-14.86 22.13,-10.22 22.33,-4.19 22.52,1.83 22.80,7.83 23.07,13.83 23.12,18.76 23.18,23.68 23.54,27.37 23.90,31.06 24.24,33.58 24.58,36.10 24.97,38.76 25.36,41.42 25.54,42.73 25.73,44.05 25.67,44.61 25.61,45.18 25.42,45.72 25.22,46.26 24.91,46.73 24.59,47.21 24.17,47.60 23.75,47.98 23.25,48.26 22.75,48.53 22.19,48.68 21.64,48.82 21.07,48.83 20.50,48.84 19.94,48.72 19.38,48.59 18.87,48.33 18.36,48.08 17.93,47.71 17.49,47.33 17.16,46.87 16.83,46.40 16.62,45.87 16.40,45.34 16.32,44.78 16.25,44.21 15.79,41.25 15.34,38.29 15.12,35.87 14.90,33.44 14.81,31.01 14.73,28.58 14.18,24.80 13.64,21.03 13.58,18.41 13.52,15.78 13.47,13.54 13.43,11.30 13.70,8.82 13.97,6.33 14.00,3.92 14.02,1.52 13.89,-1.14 13.76,-3.81 14.05,-7.03 14.34,-10.26 14.81,-13.13 15.27,-16.00 15.75,-19.09 16.22,-22.18 17.43,-24.10 18.64,-26.03 23.89,-24.68 29.14,-23.32 30.46,-20.70 31.78,-18.07 32.12,-15.30 32.46,-12.53 33.06,-7.86 33.66,-3.20 33.89,0.40 34.12,4.01 34.26,8.18 34.40,12.35 34.58,17.02 34.75,21.70 35.00,25.97 35.25,30.23 35.45,33.88 35.66,37.53 36.13,40.01 36.60,42.48 37.10,45.33 37.60,48.18 37.87,50.14 38.13,52.09 38.07,52.71 38.00,53.32 37.80,53.91 37.59,54.49 37.25,55.01 36.91,55.53 36.45,55.95 36.00,56.37 35.45,56.67 34.91,56.97 34.31,57.13 33.71,57.29 33.09,57.30 32.47,57.31 31.87,57.18 31.26,57.04 30.71,56.77 30.15,56.49 29.68,56.09 29.21,55.69 28.85,55.18 28.48,54.68 28.25,54.11 28.02,53.53 27.93,52.92 27.85,52.30 27.71,49.03 27.58,45.75 27.55,43.52 27.51,41.29 27.50,38.91 27.49,36.52 27.86,33.24 28.24,29.96 28.47,26.82 28.69,23.68 29.06,20.63 29.43,17.59 29.52,15.37 29.60,13.16 29.52,10.44 29.44,7.72 29.28,5.01 29.11,2.31 29.01,-0.02 28.91,-2.37 28.79,-4.69 28.67,-7.01 28.57,-9.13 28.46,-11.25 28.55,-12.03 28.65,-12.81 28.93,-13.55 29.21,-14.29 29.65,-14.94 30.10,-15.58 30.69,-16.11 31.28,-16.63 31.98,-17.00 32.68,-17.36 33.44,-17.55 34.21,-17.74 35.00,-17.74 35.78,-17.74 36.55,-17.55 37.31,-17.36 38.01,-16.99 38.71,-16.63 39.30,-16.11 39.89,-15.58 40.34,-14.93 40.78,-14.29 41.06,-13.55 41.34,-12.81 41.44,-12.03 41.53,-11.25 39.76,-14.15 37.99,-17.05 40.12,-15.57 42.25,-14.10 43.35,-11.72 44.45,-9.34 45.03,-6.96 45.60,-4.58 46.06,-2.17 46.53,0.23 46.70,3.37 46.88,6.51 46.96,10.21 47.04,13.90 47.13,18.10 47.22,22.30 47.44,26.38 47.66,30.46 48.04,34.19 48.41,37.92 48.72,40.76 49.03,43.61 49.40,46.88 49.77,50.14 50.01,52.13 50.24,54.12 50.17,54.75 50.10,55.38 49.88,55.98 49.67,56.57 49.31,57.10 48.96,57.62 48.49,58.05 48.02,58.47 47.46,58.77 46.91,59.07 46.29,59.23 45.68,59.39 45.05,59.39 44.42,59.40 43.80,59.26 43.18,59.11 42.62,58.82 42.06,58.54 41.58,58.12 41.10,57.71 40.73,57.19 40.37,56.67 40.14,56.08 39.91,55.49 39.82,54.87 39.74,54.24 39.63,52.03 39.53,49.83 39.44,45.88 39.34,41.94 38.87,38.12 38.41,34.30 38.24,30.86 38.07,27.43 38.00,23.93 37.92,20.43 37.83,18.04 37.75,15.65 37.64,12.62 37.54,9.59 37.50,6.85 37.46,4.10 37.38,1.56 37.30,-0.97 37.22,-3.11 37.14,-5.25 37.13,-5.75 37.11,-6.25 37.21,-7.08 37.31,-7.90 37.61,-8.68 37.90,-9.45 38.37,-10.13 38.84,-10.82 39.46,-11.37 40.08,-11.92 40.82,-12.30 41.55,-12.69 42.36,-12.89 43.17,-13.09 44.00,-13.09 44.83,-13.09 45.63,-12.89 46.44,-12.69 47.17,-12.30 47.91,-11.92 48.53,-11.37 49.15,-10.82 49.62,-10.13 50.09,-9.45 50.38,-8.67 50.68,-7.90 50.78,-7.07 50.88,-6.25 50.93,-3.30 50.98,-0.35 50.96,2.45 50.93,5.26 50.94,7.77 50.95,10.27 51.33,12.48 51.71,14.69 51.81,16.94 51.92,19.19 52.43,22.13 52.95,25.06 53.40,27.84 53.84,30.63 54.35,33.60 54.87,36.58 55.35,39.00 55.84,41.42 55.99,44.51 56.14,47.59 56.19,49.91 56.24,52.23 56.14,53.09 56.03,53.96 55.72,54.78 55.42,55.59 54.92,56.31 54.43,57.03 53.77,57.61 53.12,58.19 52.35,58.60 51.57,59.01 50.73,59.22 49.88,59.43 49.01,59.43 48.13,59.43 47.28,59.22 46.44,59.02 45.66,58.61 44.89,58.21 44.23,57.63 43.58,57.05 43.08,56.33 42.58,55.61 42.27,54.80 41.96,53.98 41.86,53.12 41.75,52.25 43.72,49.61 45.69,46.97 46.06,44.79 46.43,42.61 48.89,40.08 51.35,37.54 54.70,36.14 58.04,34.73 60.63,34.20 63.22,33.67 65.35,33.63 67.47,33.59 69.62,33.57 71.77,33.56 75.22,33.54 78.68,33.52 79.87,33.72 81.07,33.91 82.14,34.48 83.20,35.04 84.04,35.92 84.87,36.80 85.38,37.90 85.88,39.00 86.01,40.20 86.14,41.40 85.88,42.58 85.62,43.76 85.00,44.80 84.38,45.83 83.46,46.62 82.53,47.40 81.41,47.85 80.29,48.30 79.08,48.36 77.87,48.43 76.71,48.10 75.54,47.78 74.54,47.10 73.54,46.42 72.81,45.46 72.07,44.50 71.69,43.35 71.30,42.20 71.30,40.99 71.30,39.78 71.69,38.64 72.08,37.49 72.81,36.53 73.54,35.57 74.54,34.89 75.54,34.21 76.71,33.89 77.87,33.56 79.08,33.63 80.29,33.69 81.41,34.14 82.54,34.59 83.46,35.37 84.38,36.16 85.00,37.19 85.62,38.23 85.88,39.41 86.14,40.59 86.01,41.79 85.88,43.00 85.37,44.09 84.87,45.19 84.03,46.07 83.20,46.95 82.13,47.51 81.06,48.08 79.87,48.28 78.68,48.47 78.68,48.47 78.68,48.47 75.87,48.46 73.06,48.44 70.34,48.44 67.63,48.43 65.38,48.45 63.12,48.47 60.93,49.20 58.74,49.94 57.64,52.05 56.53,54.17 54.99,55.70 53.45,57.23 54.85,54.73 56.24,52.22 56.14,53.09 56.03,53.96 55.72,54.78 55.42,55.59 54.92,56.31 54.43,57.03 53.77,57.61 53.12,58.19 52.35,58.60 51.58,59.01 50.73,59.22 49.88,59.43 49.01,59.43 48.13,59.43 47.28,59.22 46.44,59.02 45.66,58.61 44.89,58.21 44.23,57.63 43.58,57.05 43.08,56.33 42.58,55.61 42.27,54.80 41.96,53.98 41.86,53.12 41.75,52.25 41.76,51.74 41.77,51.22 41.79,48.69 41.81,46.17 41.71,44.04 41.61,41.92 41.17,39.76 40.74,37.61 40.25,34.54 39.76,31.48 39.29,27.75 38.82,24.03 38.41,21.94 38.01,19.85 37.88,17.31 37.76,14.76 37.40,12.54 37.04,10.31 37.05,7.79 37.06,5.26 37.03,2.45 37.01,-0.35 37.06,-3.30 37.11,-6.25 37.21,-7.07 37.31,-7.90 37.61,-8.67 37.90,-9.45 38.37,-10.13 38.84,-10.82 39.46,-11.37 40.08,-11.92 40.82,-12.30 41.55,-12.69 42.36,-12.89 43.16,-13.09 43.99,-13.09 44.82,-13.09 45.63,-12.89 46.44,-12.69 47.17,-12.30 47.91,-11.92 48.53,-11.37 49.15,-10.82 49.62,-10.13 50.09,-9.45 50.38,-8.68 50.68,-7.90 50.78,-7.08 50.88,-6.25 50.81,-4.19 50.73,-2.13 50.66,0.09 50.59,2.31 50.54,4.63 50.50,6.95 50.44,9.35 50.39,11.75 50.27,14.81 50.16,17.87 50.09,20.76 50.02,23.66 49.98,27.00 49.94,30.35 50.01,33.74 50.08,37.13 50.36,39.52 50.65,41.92 50.55,45.87 50.46,49.83 50.35,51.98 50.24,54.12 50.17,54.75 50.10,55.38 49.88,55.98 49.67,56.57 49.31,57.10 48.96,57.62 48.49,58.05 48.02,58.47 47.46,58.77 46.91,59.07 46.29,59.23 45.68,59.39 45.05,59.39 44.42,59.40 43.80,59.26 43.18,59.11 42.62,58.82 42.06,58.54 41.58,58.12 41.10,57.71 40.73,57.19 40.37,56.67 40.14,56.08 39.91,55.49 39.82,54.87 39.74,54.24 39.92,52.35 40.11,50.45 40.23,47.36 40.35,44.27 40.24,41.64 40.13,39.00 39.52,35.24 38.91,31.48 38.18,27.42 37.45,23.35 36.64,19.19 35.83,15.04 35.15,11.26 34.48,7.49 34.23,5.22 33.98,2.95 34.14,-1.10 34.30,-5.16 31.38,-8.20 28.46,-11.25 28.55,-12.03 28.65,-12.81 28.93,-13.55 29.21,-14.29 29.65,-14.93 30.10,-15.58 30.69,-16.11 31.28,-16.63 31.98,-16.99 32.68,-17.36 33.44,-17.55 34.21,-17.74 34.99,-17.74 35.78,-17.74 36.55,-17.55 37.31,-17.36 38.01,-17.00 38.71,-16.63 39.30,-16.11 39.89,-15.58 40.34,-14.94 40.78,-14.29 41.06,-13.55 41.34,-12.81 41.44,-12.03 41.53,-11.25 41.42,-9.13 41.32,-7.01 41.20,-4.68 41.08,-2.36 40.98,-0.01 40.87,2.33 40.67,5.14 40.47,7.95 40.22,10.87 39.96,13.80 39.76,16.30 39.55,18.80 39.25,21.43 38.94,24.06 38.92,27.52 38.90,30.97 38.70,33.75 38.50,36.52 38.49,38.91 38.48,41.29 38.44,43.52 38.41,45.76 38.27,48.92 38.13,52.09 38.07,52.71 38.00,53.32 37.80,53.91 37.59,54.49 37.25,55.01 36.91,55.53 36.45,55.95 36.00,56.37 35.45,56.67 34.91,56.97 34.31,57.13 33.71,57.29 33.09,57.30 32.47,57.31 31.87,57.18 31.26,57.04 30.71,56.77 30.15,56.49 29.68,56.09 29.21,55.69 28.85,55.18 28.48,54.68 28.25,54.11 28.02,53.53 27.93,52.92 27.85,52.30 28.02,50.56 28.18,48.82 28.23,46.24 28.27,43.67 27.99,40.84 27.71,38.01 27.49,34.59 27.27,31.17 26.52,26.92 25.77,22.66 24.96,18.12 24.14,13.58 23.30,9.59 22.46,5.59 21.74,2.18 21.01,-1.23 20.44,-3.96 19.87,-6.70 19.39,-10.09 18.91,-13.47 18.27,-15.93 17.63,-18.38 22.94,-16.96 28.25,-15.53 27.72,-13.41 27.20,-11.29 26.75,-8.74 26.30,-6.18 26.13,-2.92 25.96,0.33 25.77,2.48 25.59,4.62 25.11,7.91 24.63,11.20 24.63,13.37 24.63,15.53 24.73,19.46 24.83,23.39 25.13,25.86 25.42,28.33 25.46,32.42 25.50,36.50 25.61,40.27 25.73,44.05 25.67,44.61 25.61,45.18 25.42,45.72 25.22,46.26 24.91,46.73 24.59,47.21 24.17,47.60 23.75,47.98 23.25,48.26 22.75,48.53 22.19,48.68 21.64,48.82 21.07,48.83 20.50,48.84 19.94,48.72 19.38,48.59 18.87,48.33 18.36,48.08 17.93,47.71 17.49,47.33 17.16,46.87 16.83,46.40 16.62,45.87 16.40,45.34 16.32,44.78 16.25,44.21 16.40,42.94 16.54,41.68 16.74,39.13 16.94,36.59 16.96,34.17 16.98,31.74 16.59,27.86 16.20,23.98 15.84,19.22 15.47,14.45 14.77,8.48 14.07,2.51 13.32,-3.39 12.56,-9.30 11.76,-13.82 10.96,-18.33 10.43,-21.76 9.90,-25.19 10.71,-28.72 11.51,-32.25 9.43,-34.76 7.34,-37.27 7.43,-37.95 7.53,-38.62 7.78,-39.25 8.04,-39.89 8.43,-40.44 8.83,-40.99 9.35,-41.43 9.87,-41.87 10.48,-42.18 11.08,-42.48 11.75,-42.64 12.41,-42.79 13.09,-42.77 13.77,-42.76 14.43,-42.58 15.09,-42.41 15.69,-42.08 16.28,-41.75 16.78,-41.29 17.29,-40.83 17.66,-40.26 18.04,-39.70 18.27,-39.06 18.50,-38.41 18.57,-37.74 18.64,-37.06 18.51,-35.82 18.39,-34.57 18.12,-32.30 17.85,-30.03 17.12,-26.48 16.39,-22.92 16.09,-20.28 15.79,-17.64 15.34,-14.51 14.89,-11.39 14.53,-8.07 14.17,-4.76 14.06,-0.93 13.95,2.89 14.02,6.99 14.09,11.10 13.79,13.91 13.49,16.73 13.30,21.04 13.10,25.35 13.03,28.68 12.97,32.00 12.74,35.14 12.52,38.28 12.51,38.96 12.50,39.64 12.32,40.29 12.15,40.94 11.83,41.54 11.50,42.13 11.05,42.63 10.59,43.13 10.03,43.51 9.46,43.88 8.83,44.11 8.19,44.34 7.52,44.41 6.84,44.48 6.17,44.39 5.50,44.30 4.88,44.04 4.25,43.79 3.70,43.40 3.15,43.01 2.71,42.49 2.27,41.98 1.96,41.38 1.66,40.77 1.51,40.11 1.35,39.45 1.20,37.32 1.05,35.18 0.53,32.57 0.02,29.97 -0.53,27.14 -1.10,24.31 -1.90,20.66 -2.71,17.02 -3.67,13.37 -4.64,9.71 -4.90,4.91 -5.16,0.11 -2.08,-0.20 0.98,-0.51 0.51,2.05 0.03,4.62 -0.45,6.79 -0.95,8.96 -1.76,12.11 -2.56,15.26 -2.67,16.14 -2.78,17.03 -3.10,17.87 -3.41,18.71 -3.92,19.45 -4.43,20.18 -5.10,20.78 -5.77,21.37 -6.57,21.79 -7.36,22.20 -8.23,22.42 -9.10,22.63 -9.99,22.63 -10.89,22.63 -11.76,22.42 -12.63,22.20 -13.42,21.79 -14.22,21.37 -14.89,20.78 -15.56,20.18 -16.07,19.45 -16.58,18.71 -16.89,17.87 -17.21,17.03 -17.32,16.15 -17.43,15.26 -17.41,13.76 -17.39,12.26 -17.36,9.75 -17.32,7.25 -17.31,5.09 -17.29,2.93 -17.53,0.27 -17.77,-2.38 -18.72,-5.05 -19.68,-7.73 -20.87,-10.49 -22.07,-13.25 -21.96,-14.10 -21.86,-14.94 -21.56,-15.74 -21.26,-16.54 -20.77,-17.24 -20.29,-17.94 -19.65,-18.51 -19.01,-19.07 -18.26,-19.47 -17.50,-19.86 -16.68,-20.07 -15.85,-20.27 -15.00,-20.27 -14.14,-20.27 -13.32,-20.07 -12.49,-19.86 -11.73,-19.47 -10.98,-19.07 -10.34,-18.51 -9.70,-17.94 -9.22,-17.24 -8.73,-16.54 -8.43,-15.74 -8.13,-14.94 -8.03,-14.10 -7.92,-13.25 -7.95,-12.24 -7.98,-11.23 -8.04,-8.87 -8.10,-6.51 -8.14,-3.46 -8.18,-0.41 -8.18,2.43 -8.18,5.29 -7.76,7.88 -7.33,10.48 -7.25,13.24 -7.18,16.01 -7.06,18.15 -6.95,20.29 -5.68,23.62 -4.40,26.96 -4.70,27.67 -4.99,28.37 -5.45,28.98 -5.90,29.59 -6.49,30.07 -7.08,30.55 -7.76,30.88 -8.45,31.21 -9.19,31.37 -9.94,31.52 -10.70,31.50 -11.46,31.47 -12.19,31.26 -12.92,31.05 -13.58,30.68 -14.24,30.30 -14.80,29.77 -15.35,29.25 -15.76,28.61 -16.16,27.97 -16.41,27.25 -16.65,26.53 -16.72,25.77 -16.78,25.01 -16.66,24.26 -16.54,23.51 -15.60,21.99 -14.65,20.48 -13.59,17.68 -12.54,14.87 -11.32,12.15 -10.11,9.42 -8.41,6.07 -6.71,2.72 -5.82,0.43 -4.94,-1.85 -4.65,-2.41 -4.35,-2.98 -3.93,-3.46 -3.51,-3.94 -2.99,-4.30 -2.47,-4.66 -1.87,-4.89 -1.28,-5.12 -0.65,-5.20 -0.01,-5.28 0.61,-5.20 1.24,-5.13 1.84,-4.90 2.43,-4.68 2.96,-4.32 3.48,-3.96 3.91,-3.49 4.33,-3.01 4.63,-2.45 4.93,-1.89 5.08,-1.27 5.24,-0.65 5.24,-0.01 5.24,0.61 5.09,1.23 4.94,1.85 4.94,1.85 L 4.94,1.85 Z"></path></g><g transform="translate(326.5 136.91247940063477) rotate(0 -16.5 -9.5)" stroke="none"><path fill="#ffffff" d="M 4.03,-3.02 Q 4.03,-3.02 4.95,-1.95 5.86,-0.88 7.51,0.75 9.16,2.38 10.80,3.80 12.43,5.22 13.66,9.28 14.89,13.34 12.40,15.72 9.92,18.10 7.50,18.30 5.08,18.51 2.87,19.05 0.66,19.60 -2.12,19.66 -4.91,19.73 -8.50,19.92 -12.08,20.10 -14.67,20.20 -17.26,20.29 -19.48,20.32 -21.70,20.34 -25.84,20.34 -29.98,20.34 -32.61,20.40 -35.23,20.46 -37.73,20.56 -40.22,20.66 -41.24,20.42 -42.25,20.17 -43.06,20.08 -43.87,19.98 -44.63,19.69 -45.39,19.40 -46.06,18.94 -46.73,18.48 -47.27,17.87 -47.81,17.26 -48.19,16.54 -48.56,15.81 -48.76,15.02 -48.95,14.23 -48.95,13.42 -48.95,12.61 -48.76,11.82 -48.56,11.03 -48.19,10.30 -47.81,9.58 -47.27,8.97 -46.73,8.36 -46.06,7.90 -45.39,7.44 -44.63,7.15 -43.87,6.86 -43.06,6.76 -42.25,6.67 -44.90,8.03 -47.54,9.40 -45.85,7.98 -44.15,6.57 -41.43,5.91 -38.71,5.26 -36.49,4.78 -34.28,4.31 -31.67,4.14 -29.06,3.97 -26.90,3.91 -24.75,3.86 -21.95,3.81 -19.16,3.76 -16.89,3.74 -14.62,3.73 -12.19,3.70 -9.76,3.67 -7.75,3.64 -5.74,3.61 -4.85,3.72 -3.97,3.83 -3.14,4.14 -2.30,4.46 -1.57,4.96 -0.84,5.47 -0.25,6.13 0.33,6.80 0.75,7.59 1.16,8.38 1.37,9.24 1.59,10.11 1.59,11.00 1.59,11.89 1.37,12.75 1.16,13.61 0.75,14.40 0.33,15.19 -0.25,15.86 -0.84,16.52 -1.57,17.03 -2.30,17.53 -3.14,17.85 -3.97,18.17 -4.85,18.27 -5.74,18.38 -8.18,18.38 -10.62,18.39 -13.55,18.84 -16.48,19.29 -19.14,19.36 -21.81,19.43 -20.68,17.23 -19.54,15.02 -21.64,15.70 -23.73,16.38 -21.80,15.15 -19.87,13.92 -20.73,15.96 -21.60,18.00 -21.97,15.74 -22.33,13.48 -23.73,10.22 -25.13,6.97 -26.57,4.39 -28.02,1.80 -29.41,-0.86 -30.80,-3.54 -31.57,-5.76 -32.34,-7.97 -33.71,-10.54 -35.09,-13.10 -35.70,-15.31 -36.31,-17.53 -36.88,-20.38 -37.45,-23.23 -37.95,-25.32 -38.46,-27.40 -38.51,-30.17 -38.56,-32.94 -38.57,-35.09 -38.58,-37.25 -37.02,-40.66 -35.45,-44.08 -33.47,-45.93 -31.48,-47.78 -29.31,-48.18 -27.13,-48.57 -23.80,-47.56 -20.46,-46.54 -18.99,-44.82 -17.51,-43.10 -16.64,-40.44 -15.77,-37.77 -15.15,-34.86 -14.53,-31.96 -14.03,-29.37 -13.53,-26.78 -13.51,-24.53 -13.48,-22.29 -13.48,-20.07 -13.47,-17.86 -14.07,-14.07 -14.67,-10.28 -15.87,-8.25 -17.06,-6.23 -19.25,-4.74 -21.44,-3.26 -23.51,-1.72 -25.58,-0.19 -28.54,0.20 -31.50,0.59 -32.72,0.42 -33.94,0.25 -35.04,-0.29 -36.14,-0.84 -37.01,-1.71 -37.88,-2.58 -38.42,-3.68 -38.97,-4.79 -39.13,-6.01 -39.29,-7.23 -39.06,-8.44 -38.82,-9.65 -38.21,-10.72 -37.60,-11.78 -36.68,-12.60 -35.77,-13.42 -34.63,-13.91 -33.50,-14.39 -32.28,-14.49 -31.05,-14.58 -29.85,-14.28 -28.66,-13.98 -27.63,-13.32 -26.59,-12.65 -25.82,-11.69 -25.05,-10.73 -24.63,-9.57 -24.21,-8.42 -24.18,-7.18 -24.15,-5.95 -24.52,-4.78 -24.88,-3.60 -25.60,-2.61 -26.32,-1.61 -27.32,-0.89 -28.33,-0.18 -29.50,0.17 -30.68,0.53 -31.91,0.49 -33.14,0.45 -34.30,0.03 -35.45,-0.39 -36.41,-1.16 -37.36,-1.94 -38.02,-2.98 -38.68,-4.02 -38.98,-5.21 -39.27,-6.41 -39.17,-7.63 -39.06,-8.86 -38.57,-9.99 -38.08,-11.12 -37.26,-12.03 -36.44,-12.95 -35.36,-13.55 -34.29,-14.15 -33.08,-14.38 -31.87,-14.61 -31.87,-14.61 -31.87,-14.61 -31.51,-14.51 -31.16,-14.40 -29.84,-16.12 -28.52,-17.84 -28.53,-19.97 -28.54,-22.10 -28.60,-24.61 -28.67,-27.11 -28.83,-30.70 -29.00,-34.28 -26.21,-33.66 -23.42,-33.04 -23.41,-30.65 -23.40,-28.27 -22.88,-25.79 -22.36,-23.31 -21.77,-20.91 -21.18,-18.51 -20.11,-16.37 -19.05,-14.22 -17.59,-11.29 -16.12,-8.36 -15.10,-6.34 -14.08,-4.32 -12.95,-2.06 -11.82,0.19 -10.65,2.67 -9.48,5.14 -8.67,7.62 -7.86,10.09 -7.17,12.16 -6.47,14.24 -6.45,16.77 -6.43,19.30 -7.21,21.97 -7.99,24.64 -12.12,26.49 -16.25,28.35 -19.69,28.94 -23.13,29.53 -25.30,29.14 -27.46,28.74 -29.44,26.90 -31.41,25.05 -32.97,21.65 -34.53,18.24 -34.47,15.96 -34.41,13.68 -33.59,11.00 -32.77,8.32 -30.70,7.01 -28.62,5.71 -25.23,5.13 -21.84,4.55 -19.22,4.52 -16.59,4.48 -13.61,4.04 -10.62,3.60 -8.18,3.61 -5.74,3.61 -4.85,3.72 -3.97,3.82 -3.14,4.14 -2.30,4.46 -1.57,4.96 -0.84,5.47 -0.25,6.13 0.33,6.80 0.75,7.59 1.16,8.38 1.37,9.24 1.59,10.10 1.59,10.99 1.59,11.88 1.37,12.75 1.16,13.61 0.75,14.40 0.33,15.19 -0.25,15.86 -0.84,16.52 -1.57,17.03 -2.30,17.53 -3.14,17.85 -3.97,18.16 -4.85,18.27 -5.74,18.38 -7.24,18.36 -8.75,18.34 -10.93,18.31 -13.11,18.28 -15.51,18.26 -17.91,18.25 -20.32,18.21 -22.73,18.18 -25.26,18.12 -27.78,18.07 -30.02,17.93 -32.27,17.79 -34.47,17.37 -36.66,16.95 -39.46,18.56 -42.25,20.17 -43.06,20.08 -43.87,19.98 -44.63,19.69 -45.39,19.40 -46.06,18.94 -46.73,18.48 -47.27,17.87 -47.81,17.26 -48.19,16.54 -48.56,15.82 -48.76,15.03 -48.95,14.23 -48.95,13.42 -48.95,12.61 -48.76,11.82 -48.56,11.03 -48.19,10.30 -47.81,9.58 -47.27,8.97 -46.73,8.37 -46.06,7.90 -45.39,7.44 -44.63,7.15 -43.87,6.86 -43.06,6.76 -42.25,6.67 -41.24,7.00 -40.22,7.33 -37.74,7.43 -35.25,7.53 -32.64,7.58 -30.03,7.63 -26.02,7.56 -22.01,7.49 -17.99,7.26 -13.96,7.03 -9.48,6.63 -5.00,6.24 -1.96,6.28 1.08,6.33 3.39,6.47 5.71,6.61 4.98,9.50 4.25,12.39 2.78,10.73 1.30,9.07 -0.55,7.27 -2.41,5.48 -3.22,4.25 -4.03,3.02 -4.33,2.49 -4.64,1.97 -4.80,1.38 -4.97,0.80 -5.00,0.19 -5.02,-0.41 -4.90,-1.00 -4.78,-1.60 -4.51,-2.14 -4.25,-2.69 -3.87,-3.16 -3.48,-3.63 -3.00,-4.00 -2.51,-4.36 -1.95,-4.60 -1.39,-4.84 -0.79,-4.94 -0.19,-5.03 0.40,-4.98 1.01,-4.93 1.58,-4.74 2.16,-4.55 2.67,-4.22 3.19,-3.90 3.61,-3.46 4.03,-3.02 4.03,-3.02 L 4.03,-3.02 Z"></path></g><g transform="translate(234.5 155.91247940063477) rotate(0 33 19.5)" stroke="none"><path fill="#ffffff" d="M 5.09,0.92 Q 5.09,0.92 4.43,4.07 3.78,7.22 3.28,9.58 2.78,11.94 2.24,15.14 1.71,18.35 1.30,20.93 0.90,23.51 0.98,24.94 1.06,26.37 0.96,27.10 0.86,27.82 0.58,28.50 0.31,29.17 -0.11,29.77 -0.54,30.36 -1.10,30.83 -1.66,31.30 -2.31,31.63 -2.97,31.95 -3.68,32.11 -4.40,32.27 -5.13,32.25 -5.86,32.23 -6.56,32.04 -7.27,31.85 -7.91,31.50 -8.55,31.14 -9.08,30.64 -9.62,30.15 -10.02,29.54 -10.42,28.93 -10.66,28.24 -10.91,27.55 -10.98,26.82 -11.05,26.09 -8.43,23.16 -5.81,20.22 -5.13,17.73 -4.46,15.23 -3.41,12.40 -2.36,9.58 -1.54,7.36 -0.72,5.14 0.66,1.82 2.05,-1.50 3.54,-3.60 5.03,-5.71 10.78,-6.56 16.53,-7.41 19.11,-4.69 21.70,-1.97 22.57,0.60 23.45,3.18 23.79,6.43 24.12,9.68 24.50,12.86 24.88,16.05 25.37,19.30 25.86,22.56 26.01,24.81 26.17,27.06 26.20,28.64 26.24,30.22 26.14,31.09 26.03,31.96 25.73,32.78 25.42,33.60 24.93,34.32 24.43,35.04 23.78,35.62 23.13,36.20 22.36,36.61 21.59,37.02 20.74,37.23 19.89,37.44 19.02,37.44 18.15,37.45 17.30,37.24 16.45,37.03 15.67,36.63 14.90,36.23 14.24,35.65 13.59,35.07 13.09,34.36 12.59,33.64 12.28,32.83 11.97,32.01 11.86,31.14 11.75,30.28 10.86,25.82 9.97,21.36 9.55,18.95 9.14,16.55 9.03,14.12 8.92,11.69 8.88,9.05 8.83,6.41 8.79,4.09 8.75,1.76 8.71,-0.74 8.67,-3.26 8.94,-3.97 9.21,-4.68 9.32,-5.56 9.43,-6.44 9.74,-7.27 10.06,-8.10 10.56,-8.83 11.06,-9.56 11.73,-10.15 12.39,-10.74 13.18,-11.15 13.96,-11.56 14.82,-11.77 15.68,-11.98 16.57,-11.98 17.46,-11.98 18.32,-11.77 19.18,-11.56 19.96,-11.15 20.75,-10.73 21.41,-10.15 22.08,-9.56 22.58,-8.83 23.08,-8.10 23.40,-7.27 23.71,-6.44 23.82,-5.56 23.93,-4.68 25.29,-1.64 26.66,1.38 27.44,4.47 28.22,7.56 29.10,11.06 29.97,14.55 30.90,18.06 31.83,21.57 32.64,25.18 33.44,28.78 33.99,31.04 34.53,33.30 35.18,35.33 35.82,37.37 31.28,37.06 26.74,36.74 26.30,33.85 25.86,30.95 25.91,28.06 25.95,25.17 25.98,22.19 26.01,19.20 25.99,16.90 25.98,14.60 25.97,12.26 25.97,9.92 25.94,7.41 25.90,4.90 25.85,2.32 25.79,-0.25 26.36,-2.94 26.93,-5.62 30.08,-7.77 33.23,-9.91 35.57,-9.73 37.91,-9.55 39.64,-7.76 41.38,-5.97 42.10,-3.93 42.83,-1.88 43.21,0.22 43.58,2.34 43.78,4.63 43.98,6.92 43.95,11.27 43.92,15.62 43.83,19.79 43.75,23.95 44.10,27.47 44.46,30.98 44.98,34.31 45.49,37.65 45.67,39.86 45.85,42.07 42.88,39.91 39.91,37.75 37.73,37.89 35.56,38.02 35.79,34.75 36.03,31.48 36.44,29.13 36.84,26.78 37.01,23.93 37.18,21.08 37.19,18.54 37.20,16.00 37.15,13.51 37.10,11.01 37.04,8.88 36.98,6.74 37.62,3.17 38.26,-0.40 39.54,-3.61 40.83,-6.82 45.48,-7.62 50.14,-8.41 52.58,-5.69 55.03,-2.97 55.66,-0.54 56.29,1.89 56.60,4.32 56.90,6.76 56.96,10.47 57.02,14.18 56.98,17.83 56.93,21.49 56.90,24.73 56.87,27.97 56.92,30.81 56.96,33.66 57.02,35.95 57.07,38.24 56.97,39.08 56.87,39.93 56.57,40.73 56.26,41.53 55.78,42.23 55.29,42.93 54.65,43.50 54.02,44.06 53.26,44.46 52.50,44.85 51.68,45.06 50.85,45.26 49.99,45.26 49.14,45.26 48.31,45.06 47.48,44.85 46.73,44.46 45.97,44.06 45.34,43.50 44.70,42.93 44.21,42.23 43.73,41.53 43.42,40.73 43.12,39.93 43.02,39.08 42.92,38.24 43.54,36.04 44.17,33.85 44.90,30.62 45.62,27.39 45.76,25.14 45.90,22.89 45.94,20.29 45.99,17.69 46.43,14.99 46.87,12.30 46.87,10.04 46.87,7.78 47.59,5.04 48.30,2.30 49.97,-0.20 51.63,-2.71 54.52,-3.36 57.41,-4.02 59.63,-3.38 61.84,-2.74 64.07,-0.24 66.30,2.24 67.12,4.30 67.94,6.37 68.13,9.45 68.33,12.52 68.33,15.52 68.34,18.52 68.35,20.77 68.37,23.02 68.39,25.62 68.41,28.22 68.43,30.74 68.46,33.26 68.35,34.15 68.24,35.04 67.92,35.88 67.61,36.72 67.09,37.47 66.58,38.21 65.91,38.80 65.24,39.40 64.44,39.82 63.64,40.24 62.77,40.45 61.89,40.67 60.99,40.67 60.09,40.67 59.22,40.45 58.35,40.24 57.55,39.82 56.75,39.40 56.08,38.80 55.41,38.21 54.90,37.46 54.38,36.72 54.07,35.88 53.75,35.04 53.64,34.15 53.53,33.25 53.52,31.07 53.51,28.89 53.50,26.33 53.49,23.77 53.47,21.25 53.45,18.73 53.43,16.23 53.42,13.73 53.40,11.23 53.39,8.73 53.50,7.82 53.61,6.91 53.94,6.06 54.26,5.20 54.78,4.45 55.30,3.69 55.99,3.08 56.68,2.48 57.49,2.05 58.30,1.62 59.19,1.41 60.08,1.19 61.00,1.19 61.91,1.19 62.80,1.41 63.69,1.62 64.50,2.05 65.31,2.48 66.00,3.08 66.69,3.69 67.21,4.45 67.73,5.20 68.05,6.06 68.38,6.92 68.49,7.83 68.60,8.73 69.88,11.00 71.16,13.27 71.39,15.68 71.62,18.10 71.62,18.60 71.63,19.10 71.54,20.01 71.44,20.93 71.14,21.80 70.83,22.67 70.32,23.43 69.81,24.20 69.14,24.83 68.46,25.45 67.65,25.90 66.85,26.34 65.96,26.58 65.07,26.82 64.15,26.84 63.22,26.86 62.33,26.66 61.43,26.46 60.60,26.04 59.78,25.63 59.08,25.04 58.37,24.44 57.84,23.69 57.30,22.95 56.95,22.09 56.61,21.24 56.48,20.33 56.35,19.41 57.27,16.43 58.18,13.46 59.83,11.15 61.48,8.85 64.09,8.13 66.69,7.41 68.42,7.37 70.16,7.32 71.07,7.42 71.99,7.52 72.86,7.84 73.73,8.16 74.50,8.67 75.27,9.19 75.89,9.87 76.52,10.55 76.96,11.37 77.40,12.18 77.63,13.08 77.87,13.97 77.88,14.90 77.89,15.82 77.68,16.72 77.47,17.62 77.05,18.45 76.64,19.27 76.03,19.97 75.43,20.67 74.67,21.21 73.92,21.75 73.06,22.09 72.20,22.43 71.28,22.55 70.36,22.67 67.76,22.67 65.15,22.67 61.23,22.21 57.31,21.74 55.39,21.13 53.48,20.52 52.38,19.95 51.28,19.39 50.42,18.51 49.55,17.63 49.02,16.52 48.48,15.40 48.33,14.18 48.18,12.96 48.43,11.75 48.67,10.54 49.29,9.47 49.91,8.40 50.84,7.59 51.77,6.78 52.91,6.30 54.05,5.83 55.28,5.75 56.51,5.66 57.70,5.97 58.90,6.28 59.93,6.96 60.96,7.64 61.72,8.61 62.48,9.58 62.89,10.74 63.31,11.90 63.32,13.14 63.34,14.37 62.97,15.55 62.59,16.72 61.86,17.72 61.13,18.71 60.12,19.42 59.11,20.12 57.92,20.47 56.74,20.82 55.51,20.77 54.27,20.72 53.12,20.28 51.97,19.85 51.01,19.06 50.06,18.28 49.41,17.23 48.76,16.18 48.48,14.98 48.19,13.78 48.31,12.55 48.42,11.32 48.92,10.20 49.42,9.07 50.26,8.16 51.09,7.25 52.17,6.66 53.26,6.06 54.47,5.85 55.68,5.63 56.91,5.81 58.13,5.99 58.12,5.99 58.12,5.99 61.64,6.65 65.15,7.32 67.65,7.32 70.15,7.32 71.07,7.42 71.99,7.52 72.86,7.84 73.73,8.15 74.50,8.67 75.27,9.18 75.89,9.87 76.52,10.55 76.96,11.37 77.40,12.18 77.63,13.07 77.87,13.97 77.88,14.89 77.89,15.82 77.68,16.72 77.47,17.62 77.05,18.45 76.64,19.27 76.03,19.97 75.43,20.67 74.67,21.21 73.92,21.75 73.06,22.09 72.20,22.43 71.28,22.55 70.36,22.67 69.15,22.65 67.94,22.63 69.78,20.86 71.63,19.10 71.54,20.01 71.44,20.93 71.14,21.80 70.83,22.67 70.32,23.43 69.81,24.20 69.14,24.83 68.46,25.45 67.65,25.90 66.85,26.34 65.96,26.58 65.07,26.82 64.15,26.84 63.23,26.86 62.33,26.66 61.43,26.46 60.60,26.05 59.78,25.63 59.08,25.04 58.38,24.44 57.84,23.69 57.30,22.95 56.95,22.09 56.61,21.24 56.48,20.33 56.35,19.41 55.81,17.03 55.28,14.65 54.33,11.69 53.39,8.73 53.50,7.83 53.61,6.92 53.94,6.06 54.26,5.20 54.78,4.45 55.30,3.69 55.99,3.08 56.68,2.48 57.49,2.05 58.30,1.62 59.19,1.41 60.08,1.19 60.99,1.19 61.91,1.19 62.80,1.41 63.69,1.62 64.50,2.05 65.31,2.48 66.00,3.08 66.69,3.69 67.21,4.45 67.73,5.20 68.05,6.06 68.38,6.91 68.49,7.82 68.60,8.73 68.59,11.23 68.57,13.73 68.56,16.23 68.54,18.73 68.52,21.25 68.50,23.77 68.49,26.33 68.48,28.89 68.47,31.07 68.46,33.25 68.35,34.15 68.24,35.04 67.92,35.88 67.61,36.72 67.09,37.46 66.58,38.21 65.91,38.80 65.24,39.40 64.44,39.82 63.64,40.24 62.77,40.45 61.90,40.67 61.00,40.67 60.10,40.67 59.22,40.45 58.35,40.24 57.55,39.82 56.75,39.40 56.08,38.80 55.41,38.21 54.90,37.47 54.38,36.72 54.07,35.88 53.75,35.04 53.64,34.15 53.53,33.26 53.55,31.25 53.57,29.24 53.60,26.98 53.62,24.73 53.63,22.34 53.64,19.95 53.64,17.27 53.64,14.60 54.18,12.27 54.71,9.93 57.89,9.50 61.07,9.06 60.91,11.67 60.75,14.27 60.35,17.30 59.94,20.33 59.85,23.62 59.76,26.90 59.26,29.90 58.75,32.89 57.91,35.56 57.07,38.24 56.97,39.08 56.87,39.93 56.57,40.73 56.26,41.53 55.78,42.23 55.29,42.93 54.66,43.50 54.02,44.06 53.26,44.46 52.51,44.85 51.68,45.06 50.85,45.26 50.00,45.26 49.14,45.26 48.31,45.06 47.49,44.85 46.73,44.46 45.97,44.06 45.34,43.50 44.70,42.93 44.21,42.23 43.73,41.53 43.42,40.73 43.12,39.93 43.02,39.08 42.92,38.24 42.97,35.95 43.03,33.66 43.07,30.82 43.11,27.98 43.08,24.76 43.04,21.54 42.96,17.98 42.87,14.43 42.72,11.35 42.57,8.27 42.10,6.14 41.63,4.02 41.18,1.91 40.73,-0.19 42.65,1.21 44.58,2.62 47.04,3.21 49.51,3.80 50.81,1.93 52.12,0.05 51.58,2.61 51.04,5.16 50.98,7.51 50.92,9.86 50.86,12.09 50.81,14.33 50.76,16.65 50.72,18.97 50.62,22.01 50.51,25.05 50.11,28.58 49.70,32.12 49.63,34.26 49.56,36.40 49.22,38.85 48.89,41.31 47.98,43.61 47.07,45.91 45.39,47.59 43.72,49.27 41.47,49.43 39.23,49.59 36.19,47.50 33.15,45.41 32.63,42.42 32.11,39.43 31.69,37.18 31.27,34.93 31.11,31.94 30.95,28.96 30.59,26.48 30.23,24.00 30.11,19.89 30.00,15.77 29.80,11.93 29.60,8.09 29.42,5.06 29.25,2.02 31.58,2.28 33.91,2.54 37.05,1.14 40.20,-0.25 40.14,2.32 40.09,4.90 40.05,7.41 40.02,9.92 40.02,12.27 40.01,14.61 39.99,16.91 39.98,19.22 40.00,22.22 40.02,25.23 40.02,28.27 40.02,31.31 39.87,34.62 39.72,37.93 39.09,40.29 38.46,42.65 36.35,44.63 34.24,46.61 28.85,45.17 23.46,43.74 22.84,41.27 22.22,38.81 21.55,36.50 20.89,34.19 20.32,31.47 19.74,28.74 18.66,25.39 17.59,22.03 16.52,18.48 15.45,14.93 14.44,11.40 13.42,7.87 12.08,4.33 10.74,0.78 9.98,-1.94 9.21,-4.68 9.32,-5.56 9.43,-6.44 9.74,-7.27 10.06,-8.10 10.56,-8.83 11.06,-9.56 11.73,-10.15 12.39,-10.73 13.18,-11.15 13.96,-11.56 14.82,-11.77 15.68,-11.98 16.57,-11.98 17.46,-11.98 18.32,-11.77 19.18,-11.56 19.96,-11.15 20.75,-10.74 21.41,-10.15 22.08,-9.56 22.58,-8.83 23.08,-8.10 23.40,-7.27 23.71,-6.44 23.82,-5.56 23.93,-4.68 23.62,-3.97 23.32,-3.26 23.28,-0.75 23.24,1.76 23.20,4.07 23.16,6.39 23.15,8.87 23.14,11.36 23.27,14.03 23.40,16.71 23.80,18.80 24.20,20.90 23.71,23.57 23.21,26.25 24.73,28.24 26.24,30.22 26.14,31.09 26.03,31.96 25.73,32.78 25.42,33.59 24.93,34.31 24.43,35.04 23.78,35.62 23.13,36.20 22.36,36.61 21.59,37.02 20.74,37.23 19.89,37.44 19.02,37.44 18.15,37.45 17.30,37.24 16.45,37.03 15.67,36.63 14.90,36.23 14.24,35.65 13.59,35.08 13.09,34.36 12.59,33.64 12.28,32.83 11.97,32.01 11.86,31.14 11.75,30.28 11.76,29.77 11.77,29.27 11.75,26.81 11.73,24.34 11.28,21.93 10.82,19.51 10.65,17.13 10.49,14.75 9.99,10.99 9.50,7.22 8.94,4.55 8.38,1.89 11.71,3.28 15.03,4.68 13.67,6.77 12.31,8.86 11.29,10.82 10.28,12.79 9.23,15.25 8.18,17.70 7.03,20.26 5.88,22.83 3.97,25.68 2.05,28.54 -0.49,30.25 -3.03,31.97 -0.98,29.17 1.06,26.37 0.96,27.09 0.86,27.82 0.58,28.50 0.31,29.17 -0.11,29.76 -0.54,30.36 -1.10,30.83 -1.66,31.30 -2.31,31.63 -2.97,31.95 -3.68,32.11 -4.40,32.27 -5.13,32.25 -5.86,32.23 -6.56,32.04 -7.27,31.85 -7.91,31.50 -8.55,31.14 -9.08,30.64 -9.62,30.15 -10.02,29.54 -10.42,28.93 -10.66,28.24 -10.91,27.55 -10.98,26.82 -11.05,26.09 -10.87,24.24 -10.69,22.39 -9.88,19.61 -9.06,16.83 -8.14,13.18 -7.21,9.53 -6.64,7.48 -6.08,5.42 -5.58,2.25 -5.09,-0.92 -4.90,-1.52 -4.72,-2.11 -4.39,-2.65 -4.07,-3.18 -3.63,-3.62 -3.19,-4.06 -2.66,-4.39 -2.13,-4.71 -1.53,-4.90 -0.93,-5.08 -0.31,-5.12 0.30,-5.16 0.91,-5.05 1.53,-4.94 2.10,-4.68 2.67,-4.43 3.16,-4.04 3.65,-3.66 4.03,-3.17 4.42,-2.68 4.68,-2.11 4.93,-1.54 5.05,-0.93 5.16,-0.31 5.12,0.30 5.09,0.92 5.09,0.92 L 5.09,0.92 Z"></path></g><g transform="translate(233.5 164.91247940063477) rotate(0 -1.5 0)" stroke="none"><path fill="#ffffff" d="M 0,4.54 Q 0,4.54 -0.86,4.64 -1.72,4.74 -2.48,4.61 -3.23,4.49 -3.91,4.13 -4.59,3.77 -5.12,3.21 -5.65,2.66 -5.97,1.96 -6.29,1.26 -6.37,0.50 -6.46,-0.25 -6.29,-1.00 -6.13,-1.75 -5.73,-2.41 -5.34,-3.07 -4.75,-3.56 -4.17,-4.06 -3.45,-4.34 -2.74,-4.63 -1.97,-4.67 -1.21,-4.71 -0.47,-4.51 0.26,-4.30 0.90,-3.87 1.53,-3.44 2.00,-2.83 2.46,-2.22 2.71,-1.49 2.95,-0.76 2.95,0.00 2.95,0.76 2.71,1.49 2.46,2.22 2.00,2.83 1.53,3.44 0.90,3.87 0.26,4.30 -0.47,4.51 -1.21,4.71 -1.97,4.67 -2.74,4.63 -3.45,4.34 -4.17,4.06 -4.75,3.56 -5.34,3.07 -5.73,2.41 -6.13,1.75 -6.29,1.00 -6.46,0.25 -6.37,-0.50 -6.29,-1.27 -5.97,-1.96 -5.65,-2.66 -5.12,-3.22 -4.59,-3.77 -3.91,-4.13 -3.23,-4.49 -2.48,-4.62 -1.72,-4.74 -1.72,-4.74 -1.72,-4.74 -0.86,-4.64 0,-4.54 0.54,-4.47 1.08,-4.41 1.59,-4.21 2.11,-4.02 2.56,-3.71 3.01,-3.40 3.37,-2.99 3.74,-2.58 3.99,-2.09 4.24,-1.61 4.38,-1.07 4.51,-0.54 4.51,0.00 4.51,0.54 4.38,1.08 4.24,1.61 3.99,2.09 3.74,2.58 3.37,2.99 3.01,3.40 2.56,3.71 2.11,4.02 1.59,4.21 1.08,4.41 0.54,4.47 -0.00,4.54 -0.00,4.54 L 0,4.54 Z"></path></g><g transform="translate(234.5 96.91247940063477) rotate(0 -1 13)" stroke="none"><path fill="#ffffff" d="M 4.75,1.90 Q 4.75,1.90 4.26,3.37 3.77,4.84 3.81,7.08 3.84,9.33 4.02,11.79 4.19,14.26 4.31,16.67 4.44,19.08 4.53,22.38 4.61,25.68 4.44,26.74 4.27,27.79 3.77,28.74 3.26,29.69 2.49,30.42 1.71,31.16 0.74,31.61 -0.22,32.06 -1.29,32.17 -2.35,32.29 -3.40,32.06 -4.45,31.83 -5.36,31.28 -6.28,30.72 -6.97,29.91 -7.67,29.09 -8.06,28.10 -8.46,27.10 -8.52,26.03 -8.57,24.96 -8.29,23.93 -8.00,22.90 -7.40,22.01 -6.80,21.13 -5.95,20.48 -5.09,19.83 -4.08,19.49 -3.06,19.15 -1.99,19.15 -0.92,19.15 0.08,19.49 1.10,19.83 1.95,20.48 2.80,21.13 3.40,22.02 4.00,22.90 4.29,23.93 4.57,24.97 4.52,26.04 4.46,27.10 4.06,28.10 3.67,29.09 2.97,29.91 2.28,30.73 1.36,31.28 0.44,31.83 -0.59,32.06 -1.64,32.29 -2.70,32.17 -3.77,32.06 -4.74,31.61 -5.71,31.16 -6.49,30.42 -7.27,29.68 -7.77,28.74 -8.27,27.79 -8.44,26.74 -8.61,25.68 -8.61,25.68 -8.61,25.68 -8.55,22.93 -8.49,20.18 -8.37,17.72 -8.25,15.26 -8.08,12.73 -7.91,10.21 -7.62,7.68 -7.34,5.15 -6.71,3.03 -6.07,0.90 -5.41,-0.49 -4.75,-1.90 -4.46,-2.44 -4.16,-2.98 -3.74,-3.44 -3.32,-3.89 -2.81,-4.23 -2.29,-4.57 -1.71,-4.78 -1.13,-4.99 -0.52,-5.05 0.09,-5.12 0.70,-5.03 1.31,-4.95 1.88,-4.72 2.46,-4.49 2.96,-4.13 3.46,-3.77 3.86,-3.30 4.26,-2.83 4.54,-2.28 4.82,-1.73 4.96,-1.12 5.09,-0.52 5.08,0.09 5.07,0.70 4.91,1.30 4.75,1.90 4.75,1.90 L 4.75,1.90 Z"></path></g><g stroke-linecap="round" transform="translate(320.5 193.91247940063477) rotate(0 59.5 89)"><path d="M29.75 0 C43.15 0.69, 55.43 -0.57, 89.25 0 M29.75 0 C52.26 -1.1, 74.78 -0.1, 89.25 0 M89.25 0 C107.4 -0.26, 118.82 8.13, 119 29.75 M89.25 0 C108.16 1.7, 120.94 11.59, 119 29.75 M119 29.75 C117.86 62.75, 118.1 93.11, 119 148.25 M119 29.75 C118.42 60.42, 118.56 93.48, 119 148.25 M119 148.25 C120.36 166.16, 107.88 178.4, 89.25 178 M119 148.25 C119.92 168.93, 111.12 175.81, 89.25 178 M89.25 178 C64.93 175.53, 43.82 175.53, 29.75 178 M89.25 178 C72.95 178, 55.92 177.42, 29.75 178 M29.75 178 C10.89 177.68, 0.78 167.76, 0 148.25 M29.75 178 C8.75 179.37, -1.35 169.94, 0 148.25 M0 148.25 C2.69 122.47, 1.33 97.79, 0 29.75 M0 148.25 C-0.33 103.19, 0.5 58.47, 0 29.75 M0 29.75 C0.81 10.1, 10.64 0.85, 29.75 0 M0 29.75 C-1.65 9.07, 10.03 0.56, 29.75 0" stroke="#1e1e1e" stroke-width="2" fill="none"></path></g><g stroke-linecap="round" transform="translate(574 195.91247940063477) rotate(0 59.5 89)"><path d="M29.75 0 C50.88 1.31, 70.06 -1.69, 89.25 0 M29.75 0 C46.14 -0.92, 62.58 0.17, 89.25 0 M89.25 0 C108.62 -1.94, 121 11.03, 119 29.75 M89.25 0 C110.88 -0.43, 116.92 10.29, 119 29.75 M119 29.75 C118.36 70.69, 121.26 114.98, 119 148.25 M119 29.75 C119.88 71.9, 118.82 113.43, 119 148.25 M119 148.25 C119.29 167.47, 109.15 177.57, 89.25 178 M119 148.25 C119.02 165.97, 109.42 176.83, 89.25 178 M89.25 178 C72.31 175.76, 51.91 177.07, 29.75 178 M89.25 178 C66.11 177.52, 43.48 178.86, 29.75 178 M29.75 178 C9.18 176.02, 0.28 167.19, 0 148.25 M29.75 178 C9.01 175.7, -0.37 169.57, 0 148.25 M0 148.25 C1 109.12, 1.6 72.54, 0 29.75 M0 148.25 C-0.16 110.03, -1.15 71.92, 0 29.75 M0 29.75 C-0.06 8.39, 9.37 -0.02, 29.75 0 M0 29.75 C-0.36 9.55, 11.16 -1.54, 29.75 0" stroke="#1e1e1e" stroke-width="2" fill="none"></path></g><g stroke-linecap="round" transform="translate(447 195.91247940063477) rotate(0 59.5 89)"><path d="M29.75 0 C43.61 -0.46, 53.94 -0.55, 89.25 0 M29.75 0 C51.77 1.13, 72.57 0.39, 89.25 0 M89.25 0 C107.27 0.33, 120.14 10.4, 119 29.75 M89.25 0 C107.74 -1.07, 117.4 12.18, 119 29.75 M119 29.75 C119.49 68.79, 119.39 105.6, 119 148.25 M119 29.75 C119.21 54.24, 119.18 78.25, 119 148.25 M119 148.25 C119.29 167.07, 109.37 179.46, 89.25 178 M119 148.25 C117.25 170.11, 107.02 178.08, 89.25 178 M89.25 178 C73.05 177.71, 55.28 178.16, 29.75 178 M89.25 178 C66.87 176.96, 43.81 176.41, 29.75 178 M29.75 178 C9.6 179.29, 0.54 166.34, 0 148.25 M29.75 178 C11.8 177.96, -0.43 168.74, 0 148.25 M0 148.25 C-1.08 103.93, -1.03 55.68, 0 29.75 M0 148.25 C-0.23 120.89, -0.12 93.39, 0 29.75 M0 29.75 C1.08 8.57, 11.15 1.7, 29.75 0 M0 29.75 C-1.51 8.18, 8.46 -1.37, 29.75 0" stroke="#1e1e1e" stroke-width="2" fill="none"></path></g><g stroke-linecap="round" transform="translate(324.5 401.91247940063477) rotate(0 193.5 53.5)"><path d="M26.75 0 C149.05 2.7, 274.21 2.28, 360.25 0 M26.75 0 C115.18 0.25, 205.1 1.05, 360.25 0 M360.25 0 C379.94 0.22, 388.3 9.95, 387 26.75 M360.25 0 C377.25 1.88, 387.91 10.61, 387 26.75 M387 26.75 C385.73 41.22, 386.71 58.87, 387 80.25 M387 26.75 C387.66 45.54, 387.81 64.13, 387 80.25 M387 80.25 C387.39 99.43, 377.81 105.35, 360.25 107 M387 80.25 C387.81 96.23, 377.68 106.81, 360.25 107 M360.25 107 C244.59 106.82, 125.05 107.3, 26.75 107 M360.25 107 C254.94 105, 149.35 105.36, 26.75 107 M26.75 107 C10.32 106.19, 0.7 99.47, 0 80.25 M26.75 107 C8.09 105.56, 0.5 97.99, 0 80.25 M0 80.25 C-1 61.87, 0.92 46.38, 0 26.75 M0 80.25 C-0.06 64.59, 1.14 48.15, 0 26.75 M0 26.75 C0.25 9.53, 8.93 -0.95, 26.75 0 M0 26.75 C2.04 9.06, 10.6 0.05, 26.75 0" stroke="#1e1e1e" stroke-width="2" fill="none"></path></g><g stroke-linecap="round" transform="translate(13.5 337.91247940063477) rotate(0 89.5 76)"><path d="M32 0 C61.49 -0.04, 89.34 0.11, 147 0 M32 0 C67.69 0.62, 104.15 -0.29, 147 0 M147 0 C168.14 -1.73, 179.24 12.18, 179 32 M147 0 C170.18 -2.13, 177.06 8.64, 179 32 M179 32 C180.22 53.69, 180.74 76.56, 179 120 M179 32 C179.79 65.59, 178.75 98.73, 179 120 M179 120 C180.31 140.57, 167.96 151.35, 147 152 M179 120 C177.48 140.93, 169.94 151.97, 147 152 M147 152 C108.77 149.61, 66.9 151.32, 32 152 M147 152 C119.4 152.24, 91.62 152.2, 32 152 M32 152 C10.2 151.9, -1 140.18, 0 120 M32 152 C9.63 150.61, 0.67 142.52, 0 120 M0 120 C-1.47 91.77, -1.5 66.21, 0 32 M0 120 C-0.15 98.35, -0.51 77.4, 0 32 M0 32 C-0.33 11.58, 9.34 -0.41, 32 0 M0 32 C-1.46 11.41, 12.64 0.61, 32 0" stroke="#1e1e1e" stroke-width="2" fill="none"></path></g><g stroke-linecap="round" transform="translate(11 172.91247940063477) rotate(0 89.5 76)"><path d="M32 0 C68.11 -1.14, 101.98 -1.08, 147 0 M32 0 C70.98 -0.57, 107.44 0.03, 147 0 M147 0 C169.17 -0.55, 177.78 9.15, 179 32 M147 0 C168.64 1.12, 177.59 12.78, 179 32 M179 32 C177.41 59.56, 177.81 92.33, 179 120 M179 32 C179.85 56.66, 178.99 81.95, 179 120 M179 120 C179.02 142.77, 167.76 151.18, 147 152 M179 120 C180.69 141.19, 167.96 153.92, 147 152 M147 152 C121.5 151.14, 97.37 152.09, 32 152 M147 152 C124.63 152.65, 101.87 152.45, 32 152 M32 152 C9.46 151.33, 0.79 139.9, 0 120 M32 152 C12.7 152.1, -1.57 140.1, 0 120 M0 120 C1.42 98.29, -1.37 76.85, 0 32 M0 120 C-0.03 89.18, -0.72 58.49, 0 32 M0 32 C1.9 11.16, 12.44 0.87, 32 0 M0 32 C0.78 9.8, 10.92 -0.87, 32 0" stroke="#1e1e1e" stroke-width="2" fill="none"></path></g><g stroke-linecap="round" transform="translate(10 12.912479400634766) rotate(0 89.5 76)"><path d="M32 0 C64.2 0.5, 92.97 -0.82, 147 0 M32 0 C70.47 0.17, 110.51 0.05, 147 0 M147 0 C167.05 1.47, 179.65 9.43, 179 32 M147 0 C166.33 -2.03, 176.93 8.37, 179 32 M179 32 C181.13 58.25, 177.74 85.56, 179 120 M179 32 C178.46 50.31, 179.72 67.51, 179 120 M179 120 C178.96 141.62, 170 151.44, 147 152 M179 120 C177.42 140.94, 166.16 153.91, 147 152 M147 152 C102.84 153.31, 60.55 150.93, 32 152 M147 152 C122.51 152.83, 99.3 152.36, 32 152 M32 152 C10.91 150.56, 1.03 142.7, 0 120 M32 152 C10.23 151.52, 1.77 143.46, 0 120 M0 120 C1.89 88.09, -1.52 52.59, 0 32 M0 120 C-1.11 98.41, 0.05 77.77, 0 32 M0 32 C0.6 9.49, 9.7 -0.67, 32 0 M0 32 C1.5 12.34, 9.42 1.3, 32 0" stroke="#1e1e1e" stroke-width="2" fill="none"></path></g></svg>